<mxfile host="app.diagrams.net" agent="Mozilla/5.0 (Windows NT 10.0; Win64; x64) AppleWebKit/537.36 (KHTML, like Gecko) Chrome/130.0.0.0 Safari/537.36" version="26.1.1">
  <diagram name="Сторінка-1" id="_HluldZNvsBG5YytrPP1">
    <mxGraphModel dx="600" dy="298" grid="1" gridSize="10" guides="1" tooltips="1" connect="1" arrows="1" fold="1" page="1" pageScale="1" pageWidth="827" pageHeight="1169" math="0" shadow="0">
      <root>
        <mxCell id="0" />
        <mxCell id="1" parent="0" />
        <mxCell id="m2ju7ZXAJ0jbrwntWFsi-3" value="" style="edgeStyle=orthogonalEdgeStyle;rounded=0;orthogonalLoop=1;jettySize=auto;html=1;exitX=0;exitY=0.5;exitDx=0;exitDy=0;entryX=1;entryY=0.5;entryDx=0;entryDy=0;" edge="1" parent="1" source="m2ju7ZXAJ0jbrwntWFsi-2" target="m2ju7ZXAJ0jbrwntWFsi-1">
          <mxGeometry relative="1" as="geometry">
            <mxPoint x="95" y="74" as="targetPoint" />
          </mxGeometry>
        </mxCell>
        <mxCell id="m2ju7ZXAJ0jbrwntWFsi-1" value="fraction" style="rounded=0;whiteSpace=wrap;html=1;" vertex="1" parent="1">
          <mxGeometry x="20" y="20" width="60" height="30" as="geometry" />
        </mxCell>
        <mxCell id="m2ju7ZXAJ0jbrwntWFsi-2" value="digitString" style="rounded=0;whiteSpace=wrap;html=1;" vertex="1" parent="1">
          <mxGeometry x="144" y="20" width="70" height="30" as="geometry" />
        </mxCell>
        <mxCell id="m2ju7ZXAJ0jbrwntWFsi-4" value="" style="edgeStyle=orthogonalEdgeStyle;rounded=0;orthogonalLoop=1;jettySize=auto;html=1;exitX=1;exitY=0.5;exitDx=0;exitDy=0;entryX=0.5;entryY=0;entryDx=0;entryDy=0;" edge="1" source="m2ju7ZXAJ0jbrwntWFsi-6" target="m2ju7ZXAJ0jbrwntWFsi-5" parent="1">
          <mxGeometry relative="1" as="geometry">
            <mxPoint x="529.97" y="244" as="targetPoint" />
            <Array as="points">
              <mxPoint x="560" y="115" />
              <mxPoint x="560" y="160" />
              <mxPoint x="485" y="160" />
            </Array>
          </mxGeometry>
        </mxCell>
        <mxCell id="m2ju7ZXAJ0jbrwntWFsi-5" value="fraction.h" style="rounded=0;whiteSpace=wrap;html=1;" vertex="1" parent="1">
          <mxGeometry x="454.97" y="190" width="60" height="30" as="geometry" />
        </mxCell>
        <mxCell id="m2ju7ZXAJ0jbrwntWFsi-6" value="digitString.h" style="rounded=0;whiteSpace=wrap;html=1;" vertex="1" parent="1">
          <mxGeometry x="449.97" y="100" width="70" height="30" as="geometry" />
        </mxCell>
        <mxCell id="m2ju7ZXAJ0jbrwntWFsi-8" value="" style="edgeStyle=orthogonalEdgeStyle;rounded=0;orthogonalLoop=1;jettySize=auto;html=1;" edge="1" parent="1" source="m2ju7ZXAJ0jbrwntWFsi-7" target="m2ju7ZXAJ0jbrwntWFsi-5">
          <mxGeometry relative="1" as="geometry" />
        </mxCell>
        <mxCell id="m2ju7ZXAJ0jbrwntWFsi-7" value="fraction.cpp" style="rounded=0;whiteSpace=wrap;html=1;" vertex="1" parent="1">
          <mxGeometry x="564.97" y="190" width="70" height="30" as="geometry" />
        </mxCell>
        <mxCell id="m2ju7ZXAJ0jbrwntWFsi-10" value="" style="edgeStyle=orthogonalEdgeStyle;rounded=0;orthogonalLoop=1;jettySize=auto;html=1;" edge="1" parent="1" source="m2ju7ZXAJ0jbrwntWFsi-9" target="m2ju7ZXAJ0jbrwntWFsi-6">
          <mxGeometry relative="1" as="geometry" />
        </mxCell>
        <mxCell id="m2ju7ZXAJ0jbrwntWFsi-9" value="digitString.cpp" style="rounded=0;whiteSpace=wrap;html=1;" vertex="1" parent="1">
          <mxGeometry x="434.95000000000005" y="20" width="100.03" height="30" as="geometry" />
        </mxCell>
        <mxCell id="m2ju7ZXAJ0jbrwntWFsi-15" value="" style="group" vertex="1" connectable="0" parent="1">
          <mxGeometry x="360" y="270" width="280" height="150" as="geometry" />
        </mxCell>
        <mxCell id="m2ju7ZXAJ0jbrwntWFsi-11" value="" style="rounded=0;whiteSpace=wrap;html=1;" vertex="1" parent="m2ju7ZXAJ0jbrwntWFsi-15">
          <mxGeometry width="280" height="150" as="geometry" />
        </mxCell>
        <mxCell id="m2ju7ZXAJ0jbrwntWFsi-12" value="lab_1.7.cpp" style="text;html=1;align=center;verticalAlign=middle;whiteSpace=wrap;rounded=0;" vertex="1" parent="m2ju7ZXAJ0jbrwntWFsi-15">
          <mxGeometry x="4.970000000000027" width="60" height="30" as="geometry" />
        </mxCell>
        <mxCell id="m2ju7ZXAJ0jbrwntWFsi-13" value="" style="rounded=0;whiteSpace=wrap;html=1;" vertex="1" parent="m2ju7ZXAJ0jbrwntWFsi-15">
          <mxGeometry x="80" y="10" width="190" height="130" as="geometry" />
        </mxCell>
        <mxCell id="m2ju7ZXAJ0jbrwntWFsi-16" style="edgeStyle=orthogonalEdgeStyle;rounded=0;orthogonalLoop=1;jettySize=auto;html=1;entryX=0.5;entryY=1;entryDx=0;entryDy=0;exitX=0.446;exitY=-0.008;exitDx=0;exitDy=0;exitPerimeter=0;" edge="1" parent="1" source="m2ju7ZXAJ0jbrwntWFsi-11" target="m2ju7ZXAJ0jbrwntWFsi-5">
          <mxGeometry relative="1" as="geometry" />
        </mxCell>
        <mxCell id="m2ju7ZXAJ0jbrwntWFsi-18" style="edgeStyle=orthogonalEdgeStyle;rounded=0;orthogonalLoop=1;jettySize=auto;html=1;exitX=0.25;exitY=0;exitDx=0;exitDy=0;entryX=0;entryY=0.5;entryDx=0;entryDy=0;" edge="1" parent="1" source="m2ju7ZXAJ0jbrwntWFsi-11" target="m2ju7ZXAJ0jbrwntWFsi-6">
          <mxGeometry relative="1" as="geometry" />
        </mxCell>
      </root>
    </mxGraphModel>
  </diagram>
</mxfile>
